<?xml version="1.0" encoding="UTF-8" standalone="no"?>
<!-- Created with Inkscape (http://www.inkscape.org/) -->

<svg
   width="128"
   height="128"
   viewBox="0 0 1 1"
   version="1.1"
   id="svg5"
   inkscape:version="1.2.1 (9c6d41e410, 2022-07-14)"
   sodipodi:docname="Question-Mark-Neutral.svg"
   inkscape:export-filename="..\RandomFactions\Textures\World\WorldObjects\ProcFaction_Expanding\RandNeutral.png"
   inkscape:export-xdpi="96"
   inkscape:export-ydpi="96"
   xmlns:inkscape="http://www.inkscape.org/namespaces/inkscape"
   xmlns:sodipodi="http://sodipodi.sourceforge.net/DTD/sodipodi-0.dtd"
   xmlns="http://www.w3.org/2000/svg"
   xmlns:svg="http://www.w3.org/2000/svg">
  <sodipodi:namedview
     id="namedview7"
     pagecolor="#ffffff"
     bordercolor="#666666"
     borderopacity="1.0"
     inkscape:showpageshadow="2"
     inkscape:pageopacity="0.0"
     inkscape:pagecheckerboard="0"
     inkscape:deskcolor="#d1d1d1"
     inkscape:document-units="px"
     showgrid="true"
     inkscape:zoom="2.3786088"
     inkscape:cx="36.576002"
     inkscape:cy="129.48746"
     inkscape:window-width="1680"
     inkscape:window-height="987"
     inkscape:window-x="-8"
     inkscape:window-y="-8"
     inkscape:window-maximized="1"
     inkscape:current-layer="g2637">
    <inkscape:grid
       type="xygrid"
       id="grid132"
       empspacing="8" />
  </sodipodi:namedview>
  <defs
     id="defs2" />
  <g
     inkscape:label="BG"
     inkscape:groupmode="layer"
     id="layer1" />
  <g
     inkscape:groupmode="layer"
     id="layer2"
     inkscape:label="Main">
    <g
       aria-label="?"
       transform="matrix(0.01076073,0,0,0.01076073,-0.13589189,-0.22446739)"
       id="text298"
       style="font-size:96px;line-height:1;font-family:'Comic Sans MS';-inkscape-font-specification:'Comic Sans MS';letter-spacing:0px;word-spacing:0px;baseline-shift:baseline;opacity:1;stroke-width:2.17805855;stop-color:#000000;stop-opacity:1;fill:#00ff00;fill-opacity:1;stroke:#004000;stroke-opacity:1;stroke-dasharray:none">
      <g
         id="g2637">
        <path
           style="fill:none;stroke:#8c8c8c;stroke-width:7.2602;stroke-linecap:butt;stroke-dasharray:none;stroke-opacity:1"
           id="path1077"
           sodipodi:type="arc"
           sodipodi:cx="59.09375"
           sodipodi:cy="96.365898"
           sodipodi:rx="39.205055"
           sodipodi:ry="39.205055"
           sodipodi:start="3.1415927"
           sodipodi:end="0"
           sodipodi:open="true"
           sodipodi:arc-type="arc"
           d="M 19.888695,96.365898 A 39.205055,39.205055 0 0 1 59.09375,57.160843 39.205055,39.205055 0 0 1 98.298805,96.365898" />
        <path
           style="fill:none;stroke:#b2b2b2;stroke-width:7.2602;stroke-linecap:butt;stroke-dasharray:none;stroke-opacity:1"
           id="path515"
           sodipodi:type="arc"
           sodipodi:cx="59.09375"
           sodipodi:cy="96.365898"
           sodipodi:rx="32.670879"
           sodipodi:ry="32.670879"
           sodipodi:start="3.1415927"
           sodipodi:end="0"
           sodipodi:open="true"
           sodipodi:arc-type="arc"
           d="M 26.422871,96.365898 A 32.670879,32.670879 0 0 1 59.09375,63.695019 32.670879,32.670879 0 0 1 91.764629,96.365898" />
        <path
           style="fill:none;stroke:#d9d9d9;stroke-width:7.2602;stroke-linecap:butt;stroke-dasharray:none;stroke-opacity:1"
           id="path1079"
           sodipodi:type="arc"
           sodipodi:cx="59.09375"
           sodipodi:cy="96.365898"
           sodipodi:rx="26.136705"
           sodipodi:ry="26.136705"
           sodipodi:start="3.1415927"
           sodipodi:end="0"
           sodipodi:open="true"
           sodipodi:arc-type="arc"
           d="M 32.957045,96.365898 A 26.136705,26.136705 0 0 1 59.09375,70.229193 26.136705,26.136705 0 0 1 85.230455,96.365898" />
      </g>
      <path
         d="m 36.21875,53.703125 q 0,-4.453125 2.859375,-9 2.859375,-4.59375 8.34375,-7.59375 5.484375,-3 12.796875,-3 6.796875,0 12,2.53125 5.203125,2.484375 8.015625,6.796875 2.859375,4.3125 2.859375,9.375 0,3.984375 -1.640625,6.984375 -1.59375,3 -3.84375,5.203125 -2.203125,2.15625 -7.96875,7.3125 -1.59375,1.453125 -2.578125,2.578125 -0.9375,1.078125 -1.40625,2.015625 -0.46875,0.890625 -0.75,1.828125 -0.234375,0.890625 -0.75,3.1875 -0.890625,4.875 -5.578125,4.875 -2.4375,0 -4.125,-1.59375 -1.640625,-1.59375 -1.640625,-4.734375 0,-3.9375 1.21875,-6.796875 1.21875,-2.90625 3.234375,-5.0625 2.015625,-2.203125 5.4375,-5.203125 3,-2.625 4.3125,-3.9375 1.359375,-1.359375 2.25,-3 0.9375,-1.640625 0.9375,-3.5625 0,-3.75 -2.8125,-6.328125 Q 64.625,44 60.21875,44 55.0625,44 52.625,46.625 50.1875,49.203125 48.5,54.265625 46.90625,59.5625 42.453125,59.5625 q -2.625,0 -4.453125,-1.828125 -1.78125,-1.875 -1.78125,-4.03125 z m 22.875,51.375005 q -2.859375,0 -5.015625,-1.82813 -2.109375,-1.875 -2.109375,-5.203125 0,-2.953125 2.0625,-4.96875 2.0625,-2.015625 5.0625,-2.015625 2.953125,0 4.96875,2.015625 2.015625,2.015625 2.015625,4.96875 0,3.281255 -2.109375,5.156255 -2.109375,1.875 -4.875,1.875 z"
         style="font-family:'Arial Rounded MT Bold';-inkscape-font-specification:'Arial Rounded MT Bold, ';fill:#ffffff;fill-opacity:1;stroke:#404040;stroke-width:2.17806;stroke-dasharray:none;stroke-opacity:1"
         id="path404" />
    </g>
  </g>
  <g
     inkscape:groupmode="layer"
     id="layer3"
     inkscape:label="FG" />
</svg>
