<?xml version="1.0" encoding="UTF-8" standalone="no"?>
<!-- Created with Inkscape (http://www.inkscape.org/) -->

<svg
   width="128"
   height="128"
   viewBox="0 0 1 1"
   version="1.1"
   id="svg5"
   inkscape:version="1.2.1 (9c6d41e410, 2022-07-14)"
   sodipodi:docname="Random-Bug.svg"
   inkscape:export-filename="..\RandomFactions\Textures\World\WorldObjects\RandFaction_Expanding\RandBug.png"
   inkscape:export-xdpi="96"
   inkscape:export-ydpi="96"
   xml:space="preserve"
   xmlns:inkscape="http://www.inkscape.org/namespaces/inkscape"
   xmlns:sodipodi="http://sodipodi.sourceforge.net/DTD/sodipodi-0.dtd"
   xmlns="http://www.w3.org/2000/svg"
   xmlns:svg="http://www.w3.org/2000/svg"><sodipodi:namedview
     id="namedview7"
     pagecolor="#ffffff"
     bordercolor="#666666"
     borderopacity="1.0"
     inkscape:showpageshadow="2"
     inkscape:pageopacity="0.0"
     inkscape:pagecheckerboard="0"
     inkscape:deskcolor="#d1d1d1"
     inkscape:document-units="px"
     showgrid="true"
     inkscape:zoom="3.3638608"
     inkscape:cx="26.160416"
     inkscape:cy="80.264914"
     inkscape:window-width="1680"
     inkscape:window-height="987"
     inkscape:window-x="-8"
     inkscape:window-y="-8"
     inkscape:window-maximized="1"
     inkscape:current-layer="text298"><inkscape:grid
       type="xygrid"
       id="grid132"
       empspacing="8" /></sodipodi:namedview><defs
     id="defs2" /><g
     inkscape:label="BG"
     inkscape:groupmode="layer"
     id="layer1" /><g
     inkscape:groupmode="layer"
     id="layer2"
     inkscape:label="Main"><g
       aria-label="?"
       transform="matrix(0.01076073,0,0,0.01076073,-0.13589189,-0.22446739)"
       id="text298"
       style="font-size:96px;line-height:1;font-family:'Comic Sans MS';-inkscape-font-specification:'Comic Sans MS';letter-spacing:0px;word-spacing:0px;baseline-shift:baseline;opacity:1;stroke-width:2.17805855;stop-color:#000000;stop-opacity:1;fill:#00ff00;fill-opacity:1;stroke:#004000;stroke-opacity:1;stroke-dasharray:none"><path
         style="opacity:1;fill:#a6a6a6;fill-opacity:1;stroke:#404040;stroke-width:1.80764;stroke-linecap:round;stroke-linejoin:round;stroke-dasharray:none;stroke-opacity:1"
         d="m 68.131954,89.935444 1.80764,1.80764 -10e-7,17.172586 c 5.422923,-2.71146 17.172586,-11.749664 17.172586,-18.980226 0,-7.230563 -7.230562,-13.557305 -7.230562,-13.557305 V 63.724656 c 0,0 1.80764,-3.615283 6.326742,-7.230564 4.519101,-3.615281 8.134383,-11.749663 8.134383,-18.076405 0,-6.326743 -1.807641,-11.749664 -1.807641,-11.749664 -9.942023,9.942023 -17.172585,19.884047 -33.441351,19.884047 -16.268766,0 -23.499328,-9.942024 -33.441351,-19.884047 0,0 -1.807641,5.422921 -1.807641,11.749664 0,6.326742 3.615282,14.461124 8.134383,18.076405 4.519102,3.615281 6.326742,7.230564 6.326742,7.230564 v 12.653483 c 0,0 -7.230562,6.326742 -7.230562,13.557305 0,7.230562 11.749663,16.268766 17.172586,18.980226 l -10e-7,-17.172586 1.80764,-1.80764 h 9.038204 z"
         id="path1168"
         sodipodi:nodetypes="cccsccsscccssccsccccc" /><path
         d="m 36.21875,53.703125 q 0,-4.453125 2.859375,-9 2.859375,-4.59375 8.34375,-7.59375 5.484375,-3 12.796875,-3 6.796875,0 12,2.53125 5.203125,2.484375 8.015625,6.796875 2.859375,4.3125 2.859375,9.375 0,3.984375 -1.640625,6.984375 -1.59375,3 -3.84375,5.203125 -2.203125,2.15625 -7.96875,7.3125 -1.59375,1.453125 -2.578125,2.578125 -0.9375,1.078125 -1.40625,2.015625 -0.46875,0.890625 -0.75,1.828125 -0.234375,0.890625 -0.75,3.1875 -0.890625,4.875 -5.578125,4.875 -2.4375,0 -4.125,-1.59375 -1.640625,-1.59375 -1.640625,-4.734375 0,-3.9375 1.21875,-6.796875 1.21875,-2.90625 3.234375,-5.0625 2.015625,-2.203125 5.4375,-5.203125 3,-2.625 4.3125,-3.9375 1.359375,-1.359375 2.25,-3 0.9375,-1.640625 0.9375,-3.5625 0,-3.75 -2.8125,-6.328125 Q 64.625,44 60.21875,44 55.0625,44 52.625,46.625 50.1875,49.203125 48.5,54.265625 46.90625,59.5625 42.453125,59.5625 q -2.625,0 -4.453125,-1.828125 -1.78125,-1.875 -1.78125,-4.03125 z m 22.875,51.375005 q -2.859375,0 -5.015625,-1.82813 -2.109375,-1.875 -2.109375,-5.203125 0,-2.953125 2.0625,-4.96875 2.0625,-2.015625 5.0625,-2.015625 2.953125,0 4.96875,2.015625 2.015625,2.015625 2.015625,4.96875 0,3.281255 -2.109375,5.156255 -2.109375,1.875 -4.875,1.875 z"
         style="font-family:'Arial Rounded MT Bold';-inkscape-font-specification:'Arial Rounded MT Bold, ';fill:#ffffff;fill-opacity:1;stroke:#404040;stroke-width:2.17806;stroke-dasharray:none;stroke-opacity:1"
         id="path404" /><path
         style="opacity:1;fill:#a6a6a6;fill-opacity:1;stroke:#404040;stroke-width:1.45204;stroke-linecap:round;stroke-linejoin:round;stroke-dasharray:none;stroke-opacity:1"
         d="m 52.559575,49.900647 c 0,0 5.808156,-17.424469 0,-23.232625 -1.452039,-1.452039 0.169555,-3.231707 2.904078,1e-6 5.305752,6.270434 0,23.232625 0,23.232625"
         id="path1329"
         sodipodi:nodetypes="cssc" /><path
         style="opacity:1;fill:#a6a6a6;fill-opacity:1;stroke:#404040;stroke-width:1.45204;stroke-linecap:round;stroke-linejoin:round;stroke-dasharray:none;stroke-opacity:1"
         d="m 65.627926,49.900647 c 0,0 5.808156,-17.424469 0,-23.232625 -1.452039,-1.452039 0.169555,-3.231707 2.904078,1e-6 5.305752,6.270434 0,23.232625 0,23.232625"
         id="path1335"
         sodipodi:nodetypes="cssc" /></g></g><g
     inkscape:groupmode="layer"
     id="layer3"
     inkscape:label="FG" /></svg>
